# Created by FreeCAD <http://www.freecadweb.org>
v 0.887500 0.708253 2.875000 204 204 204
v 0.916506 0.600000 2.875000 204 204 204
v 0.700000 0.600000 2.750000 204 204 204
v 0.916506 0.600000 3.125000 204 204 204
v 0.700000 0.816506 2.875000 204 204 204
v 0.512500 0.708253 2.875000 204 204 204
v 0.512500 0.491747 2.875000 204 204 204
v 0.808253 0.787500 3.125000 204 204 204
v 0.700000 0.600000 3.250000 204 204 204
v 0.700000 0.383494 2.875000 204 204 204
v 0.591747 0.787500 3.125000 204 204 204
v 0.887500 0.491747 2.875000 204 204 204
v 0.483494 0.600000 3.125000 204 204 204
v 0.591747 0.412500 3.125000 204 204 204
v 0.808253 0.412500 3.125000 204 204 204
vn 0.495572 0.132788 -0.858356
vn 0.965926 0.258819 0.000000
vn 0.277350 0.480385 -0.832050
vn -0.277350 0.480385 -0.832050
vn -0.554700 0.000000 -0.832050
vn 0.480384 0.277350 0.832050
vn 0.860254 0.496668 0.115252
vn 0.496668 0.860255 -0.115252
vn -0.277350 -0.480384 -0.832050
vn -0.496668 0.860255 -0.115252
vn -0.000000 0.993336 0.115252
vn -0.000000 0.554700 0.832050
vn 0.495572 -0.132788 -0.858356
vn 0.965926 -0.258819 0.000000
vn 0.277350 -0.480384 -0.832050
vn -0.480384 0.277350 0.832050
vn -0.993336 0.000000 -0.115252
vn -0.860254 0.496668 0.115252
vn -0.480384 -0.277350 0.832050
vn -0.496668 -0.860254 -0.115252
vn -0.860254 -0.496668 0.115252
vn 0.480384 -0.277350 0.832050
vn 0.860254 -0.496668 0.115252
vn 0.496668 -0.860254 -0.115252
vn 0.000000 -0.554700 0.832050
vn 0.000000 -0.993336 0.115252
f 1//1 2//1 3//1
f 1//2 4//2 2//2
f 5//3 1//3 3//3
f 6//4 5//4 3//4
f 7//5 6//5 3//5
f 8//6 9//6 4//6
f 8//7 4//7 1//7
f 8//8 1//8 5//8
f 10//9 7//9 3//9
f 11//10 5//10 6//10
f 11//11 8//11 5//11
f 11//12 9//12 8//12
f 12//13 3//13 2//13
f 12//14 2//14 4//14
f 12//15 10//15 3//15
f 13//16 9//16 11//16
f 13//17 6//17 7//17
f 13//18 11//18 6//18
f 14//19 9//19 13//19
f 14//20 7//20 10//20
f 14//21 13//21 7//21
f 15//22 4//22 9//22
f 15//23 12//23 4//23
f 15//24 10//24 12//24
f 15//25 9//25 14//25
f 15//26 14//26 10//26
