# Created by FreeCAD <http://www.freecadweb.org>
v 0.146946 0.254518 -0.404509 204 204 204
v 0.353553 -0.000000 -0.353553 204 204 204
v 0.000000 -0.000000 -0.500000 204 204 204
v -0.051034 0.289428 -0.404509 204 204 204
v -0.225135 0.188911 -0.404509 204 204 204
v 0.364276 0.305664 -0.154509 204 204 204
v 0.500000 -0.000000 -0.000000 204 204 204
v -0.293893 0.000000 -0.404509 204 204 204
v 0.082575 0.468304 -0.154509 204 204 204
v -0.225135 -0.188911 -0.404509 204 204 204
v -0.237764 0.411820 -0.154509 204 204 204
v -0.051034 -0.289428 -0.404509 204 204 204
v -0.446850 0.162640 -0.154509 204 204 204
v 0.237764 0.411820 0.154509 204 204 204
v 0.353553 -0.000000 0.353553 204 204 204
v 0.146946 -0.254518 -0.404509 204 204 204
v -0.446850 -0.162640 -0.154509 204 204 204
v -0.082575 0.468304 0.154509 204 204 204
v 0.276169 -0.100517 -0.404509 204 204 204
v -0.237764 -0.411820 -0.154509 204 204 204
v -0.364276 0.305664 0.154509 204 204 204
v 0.225135 0.188911 0.404509 204 204 204
v 0.000000 -0.000000 0.500000 204 204 204
v 0.082575 -0.468304 -0.154509 204 204 204
v -0.475528 0.000000 0.154509 204 204 204
v 0.051034 0.289428 0.404509 204 204 204
v 0.364276 -0.305664 -0.154509 204 204 204
v -0.364276 -0.305664 0.154509 204 204 204
v -0.146946 0.254518 0.404509 204 204 204
v -0.082575 -0.468304 0.154509 204 204 204
v -0.276169 0.100517 0.404509 204 204 204
v 0.237764 -0.411820 0.154509 204 204 204
v -0.276169 -0.100517 0.404509 204 204 204
v -0.146946 -0.254518 0.404509 204 204 204
v 0.051034 -0.289428 0.404509 204 204 204
v 0.225135 -0.188911 0.404509 204 204 204
vn 0.379696 0.124702 -0.916668
vn 0.056746 0.321824 -0.945097
vn -0.163394 0.283007 -0.945097
vn 0.902906 0.211869 -0.373996
vn 0.650306 0.398394 -0.646826
vn -0.307081 0.111768 -0.945097
vn 0.426504 0.738727 -0.521897
vn 0.135766 0.769967 -0.623473
vn -0.307081 -0.111768 -0.945097
vn -0.390922 0.677098 -0.623473
vn -0.148123 0.840049 -0.521897
vn -0.163394 -0.283007 -0.945097
vn -0.734694 0.267407 -0.623473
vn -0.653442 0.548303 -0.521897
vn 0.844164 0.406353 0.349664
vn 0.497861 0.862320 -0.092406
vn 0.858900 0.476398 0.187978
vn 0.056746 -0.321824 -0.945097
vn -0.853009 0.000000 -0.521897
vn -0.734694 -0.267407 -0.623473
vn -0.172905 0.980594 -0.092406
vn 0.172905 0.980594 0.092406
vn 0.377036 0.171163 -0.910246
vn 0.250335 -0.210056 -0.945097
vn 0.761886 -0.639298 0.104056
vn -0.390922 -0.677098 -0.623473
vn -0.653442 -0.548303 -0.521897
vn -0.497861 0.862320 0.092406
vn -0.762767 0.640037 -0.092406
vn 0.382661 0.010942 0.923824
vn 0.798451 0.428774 0.422646
vn 0.135766 -0.769967 -0.623473
vn -0.148123 -0.840049 -0.521897
vn -0.995721 0.000000 -0.092406
vn -0.935672 0.340557 0.092406
vn 0.163394 0.283007 0.945097
vn 0.148123 0.840049 0.521897
vn 0.390922 0.677098 0.623473
vn 0.902906 -0.211869 -0.373996
vn 0.650306 -0.398394 -0.646826
vn 0.426504 -0.738727 -0.521897
vn -0.935672 -0.340557 0.092406
vn -0.762767 -0.640037 -0.092406
vn -0.426504 0.738727 0.521897
vn -0.056746 0.321824 0.945097
vn -0.135766 0.769967 0.623473
vn -0.172905 -0.980594 -0.092406
vn -0.497861 -0.862320 0.092406
vn -0.598928 0.502560 0.623473
vn -0.250335 0.210056 0.945097
vn -0.801566 0.291746 0.521897
vn 0.844164 -0.406353 0.349664
vn 0.858900 -0.476398 0.187978
vn 0.497861 -0.862320 -0.092406
vn 0.172905 -0.980594 0.092406
vn -0.801566 -0.291746 0.521897
vn -0.326789 0.000000 0.945097
vn -0.781845 0.000000 0.623473
vn -0.250335 -0.210056 0.945097
vn -0.426504 -0.738727 0.521897
vn -0.598928 -0.502560 0.623473
vn -0.135766 -0.769967 0.623473
vn -0.056746 -0.321824 0.945097
vn 0.148123 -0.840049 0.521897
vn 0.163394 -0.283007 0.945097
vn 0.390922 -0.677098 0.623473
vn 0.382661 -0.010942 0.923824
vn 0.798451 -0.428774 0.422646
f 1//1 2//1 3//1
f 4//2 1//2 3//2
f 5//3 4//3 3//3
f 6//4 7//4 2//4
f 6//5 2//5 1//5
f 8//6 5//6 3//6
f 9//7 6//7 1//7
f 9//8 1//8 4//8
f 10//9 8//9 3//9
f 11//10 4//10 5//10
f 11//11 9//11 4//11
f 12//12 10//12 3//12
f 13//13 5//13 8//13
f 13//14 11//14 5//14
f 14//15 15//15 7//15
f 14//16 6//16 9//16
f 14//17 7//17 6//17
f 16//18 12//18 3//18
f 17//19 13//19 8//19
f 17//20 8//20 10//20
f 18//21 9//21 11//21
f 18//22 14//22 9//22
f 19//23 3//23 2//23
f 19//24 16//24 3//24
f 19//25 2//25 16//25
f 20//26 10//26 12//26
f 20//27 17//27 10//27
f 21//28 18//28 11//28
f 21//29 11//29 13//29
f 22//30 23//30 15//30
f 22//31 15//31 14//31
f 24//32 12//32 16//32
f 24//33 20//33 12//33
f 25//34 13//34 17//34
f 25//35 21//35 13//35
f 26//36 23//36 22//36
f 26//37 14//37 18//37
f 26//38 22//38 14//38
f 27//39 2//39 7//39
f 27//40 16//40 2//40
f 27//41 24//41 16//41
f 28//42 25//42 17//42
f 28//43 17//43 20//43
f 29//44 18//44 21//44
f 29//45 23//45 26//45
f 29//46 26//46 18//46
f 30//47 20//47 24//47
f 30//48 28//48 20//48
f 31//49 29//49 21//49
f 31//50 23//50 29//50
f 31//51 21//51 25//51
f 32//52 7//52 15//52
f 32//53 27//53 7//53
f 32//54 24//54 27//54
f 32//55 30//55 24//55
f 33//56 25//56 28//56
f 33//57 23//57 31//57
f 33//58 31//58 25//58
f 34//59 23//59 33//59
f 34//60 28//60 30//60
f 34//61 33//61 28//61
f 35//62 34//62 30//62
f 35//63 23//63 34//63
f 35//64 30//64 32//64
f 36//65 23//65 35//65
f 36//66 35//66 32//66
f 36//67 15//67 23//67
f 36//68 32//68 15//68
